<svg xmlns="http://www.w3.org/2000/svg" viewBox="0 0 128 128" role="img" aria-labelledby="title desc">
  <title id="title">Aelyx mark</title>
  <desc id="desc">A hand-drawn heraldic shield mark with a monogram A.</desc>
  <rect width="128" height="128" rx="30" fill="#111111"/>
  <path
    d="M64 14c16 12 31 17 48 17-2 37-15 65-48 83-33-18-46-46-48-83 17 0 32-5 48-17Z"
    fill="#191919"
    stroke="#ffe66b"
    stroke-width="7"
    stroke-linejoin="round"
  />
  <path
    d="M27 39c9 1 19-1 30-7-7 18-14 31-23 43-4-10-6-22-7-36Z"
    fill="#8f1515"
  />
  <path
    d="M101 39c-9 1-19-1-30-7 7 18 14 31 23 43 4-10 6-22 7-36Z"
    fill="#8f1515"
  />
  <path
    d="M64 33 36 93h14l6-15h17l6 15h14L64 33Zm-4 34 5-13 5 13H60Z"
    fill="#ffe66b"
  />
  <path
    d="M64 35 53 82h-8l19-47Z"
    fill="#fff3a4"
    opacity=".55"
  />
  <path
    d="M44 101c10 8 17 11 20 13 3-2 10-5 20-13"
    fill="none"
    stroke="#ffe66b"
    stroke-width="5"
    stroke-linecap="round"
  />
  <path
    d="M39 29c8-8 16-12 25-15 9 3 17 7 25 15"
    fill="none"
    stroke="#8f1515"
    stroke-width="5"
    stroke-linecap="round"
  />
</svg>
